# Blender v3.6.1 OBJ File: ''
# www.blender.org
mtllib table1obj.mtl
o Cube.002_Cube.017
v 4.229080 -1.263853 -2.766195
v 4.229080 -1.263853 -3.451694
v 4.229080 3.212685 -3.451694
v 4.229080 3.212685 -2.766195
v 3.652835 -1.263853 -3.451694
v 3.652835 3.212685 -3.451694
v 3.652835 -1.263853 -2.766195
v 3.652835 3.212685 -2.766195
v 4.236816 2.991602 -3.545074
v 4.236816 2.991603 14.486524
v -3.979274 2.991603 14.486524
v -3.979274 2.991602 -3.545074
v 4.236816 3.218257 14.486524
v -3.979274 3.218257 14.486524
v -3.979274 3.218256 -3.545074
v 4.236816 3.218256 -3.545074
v 4.145879 -1.259319 14.433272
v 4.145879 -1.259319 13.747773
v 4.145879 3.217219 13.747773
v 4.145879 3.217219 14.433272
v 3.569633 -1.259319 13.747773
v 3.569633 3.217219 13.747773
v 3.569633 -1.259319 14.433272
v 3.569633 3.217219 14.433272
v 3.502461 1.802164 -3.360207
v 3.701647 1.802164 -3.360207
v 3.701647 1.802164 -3.360207
v 3.502461 1.802164 -3.360207
v 3.701647 1.696208 -3.360207
v 3.701647 1.696208 -3.360207
v 3.502461 1.696208 -3.360207
v 3.502461 1.696208 -3.360207
v -3.422102 -1.456905 -2.696105
v -3.422102 -1.456905 -3.381604
v -3.422102 3.019633 -3.381604
v -3.422102 3.019633 -2.696105
v -3.998348 -1.456905 -3.381604
v -3.998348 3.019633 -3.381604
v -3.998348 -1.456905 -2.696105
v -3.998348 3.019633 -2.696105
v -3.263366 -1.316149 14.327203
v -3.263366 -1.316149 13.641702
v -3.263366 3.160389 13.641702
v -3.263366 3.160389 14.327203
v -3.839611 -1.316149 13.641702
v -3.839611 3.160389 13.641702
v -3.839611 -1.316149 14.327203
v -3.839611 3.160389 14.327203
vt 0.375000 0.000000
vt 0.625000 0.000000
vt 0.625000 0.250000
vt 0.375000 0.250000
vt 0.375000 0.250000
vt 0.625000 0.250000
vt 0.625000 0.500000
vt 0.375000 0.500000
vt 0.375000 0.500000
vt 0.625000 0.500000
vt 0.625000 0.750000
vt 0.375000 0.750000
vt 0.375000 0.750000
vt 0.625000 0.750000
vt 0.625000 1.000000
vt 0.375000 1.000000
vt 0.125000 0.500000
vt 0.375000 0.500000
vt 0.125000 0.750000
vt 0.875000 0.500000
vt 0.875000 0.750000
vt 0.625000 0.750000
vt 0.625000 0.500000
vt 0.875000 0.500000
vt 0.875000 0.750000
vt 0.625000 0.750000
vt 0.375000 0.750000
vt 0.625000 0.750000
vt 0.625000 1.000000
vt 0.375000 1.000000
vt 0.375000 0.000000
vt 0.625000 0.000000
vt 0.625000 0.250000
vt 0.375000 0.250000
vt 0.125000 0.500000
vt 0.375000 0.500000
vt 0.125000 0.750000
vt 0.375000 0.500000
vt 0.625000 0.500000
vt 0.625000 0.750000
vt 0.375000 0.750000
vt 0.375000 0.250000
vt 0.625000 0.250000
vt 0.375000 0.500000
vt 0.375000 0.000000
vt 0.625000 0.000000
vt 0.625000 0.250000
vt 0.375000 0.250000
vt 0.375000 0.250000
vt 0.625000 0.250000
vt 0.625000 0.500000
vt 0.375000 0.500000
vt 0.375000 0.500000
vt 0.625000 0.500000
vt 0.625000 0.750000
vt 0.375000 0.750000
vt 0.375000 0.750000
vt 0.625000 0.750000
vt 0.625000 1.000000
vt 0.375000 1.000000
vt 0.125000 0.500000
vt 0.375000 0.500000
vt 0.125000 0.750000
vt 0.875000 0.500000
vt 0.875000 0.750000
vt 0.625000 0.750000
vt 0.375000 0.000000
vt 0.625000 0.000000
vt 0.625000 0.250000
vt 0.375000 0.250000
vt 0.375000 0.250000
vt 0.625000 0.250000
vt 0.625000 0.500000
vt 0.375000 0.500000
vt 0.375000 0.500000
vt 0.625000 0.500000
vt 0.625000 0.750000
vt 0.375000 0.750000
vt 0.375000 0.750000
vt 0.625000 0.750000
vt 0.625000 1.000000
vt 0.375000 1.000000
vt 0.125000 0.500000
vt 0.375000 0.500000
vt 0.125000 0.750000
vt 0.875000 0.500000
vt 0.875000 0.750000
vt 0.625000 0.750000
vt 0.375000 0.000000
vt 0.625000 0.000000
vt 0.625000 0.250000
vt 0.375000 0.250000
vt 0.375000 0.250000
vt 0.625000 0.250000
vt 0.625000 0.500000
vt 0.375000 0.500000
vt 0.375000 0.500000
vt 0.625000 0.500000
vt 0.625000 0.750000
vt 0.375000 0.750000
vt 0.375000 0.750000
vt 0.625000 0.750000
vt 0.625000 1.000000
vt 0.375000 1.000000
vt 0.125000 0.500000
vt 0.375000 0.500000
vt 0.125000 0.750000
vt 0.875000 0.500000
vt 0.875000 0.750000
vt 0.625000 0.750000
vt 0.375000 0.000000
vt 0.625000 0.000000
vt 0.625000 0.250000
vt 0.375000 0.250000
vt 0.375000 0.250000
vt 0.625000 0.250000
vt 0.625000 0.500000
vt 0.375000 0.500000
vt 0.375000 0.500000
vt 0.625000 0.500000
vt 0.625000 0.750000
vt 0.375000 0.750000
vt 0.375000 0.750000
vt 0.625000 0.750000
vt 0.625000 1.000000
vt 0.375000 1.000000
vt 0.125000 0.500000
vt 0.375000 0.500000
vt 0.125000 0.750000
vt 0.875000 0.500000
vt 0.875000 0.750000
vt 0.625000 0.750000
vn 1.0000 0.0000 0.0000
vn 0.0000 -0.0000 -1.0000
vn -1.0000 0.0000 0.0000
vn 0.0000 0.0000 1.0000
vn 0.0000 -1.0000 0.0000
vn 0.0000 1.0000 0.0000
usemtl Material.001
s 1
f 1/1/1 2/2/1 3/3/1 4/4/1
f 2/5/2 5/6/2 6/7/2 3/8/2
f 5/9/3 7/10/3 8/11/3 6/12/3
f 7/13/4 1/14/4 4/15/4 8/16/4
f 2/17/5 1/18/5 7/13/5 5/19/5
f 6/7/6 8/20/6 4/21/6 3/22/6
f 9/23/5 10/24/5 11/25/5 12/26/5
f 13/27/4 14/28/4 11/29/4 10/30/4
f 14/31/3 15/32/3 12/33/3 11/34/3
f 15/35/6 14/36/6 13/27/6 16/37/6
f 16/38/1 13/39/1 10/40/1 9/41/1
f 15/42/2 16/43/2 9/23/2 12/44/2
f 17/45/1 18/46/1 19/47/1 20/48/1
f 18/49/2 21/50/2 22/51/2 19/52/2
f 21/53/3 23/54/3 24/55/3 22/56/3
f 23/57/4 17/58/4 20/59/4 24/60/4
f 18/61/5 17/62/5 23/57/5 21/63/5
f 22/51/6 24/64/6 20/65/6 19/66/6
f 25/67/4 26/68/4 27/69/4 28/70/4
f 26/71/4 29/72/4 30/73/4 27/74/4
f 29/75/4 31/76/4 32/77/4 30/78/4
f 31/79/4 25/80/4 28/81/4 32/82/4
f 26/83/4 25/84/4 31/79/4 29/85/4
f 30/73/2 32/86/2 28/87/2 27/88/2
f 33/89/1 34/90/1 35/91/1 36/92/1
f 34/93/2 37/94/2 38/95/2 35/96/2
f 37/97/3 39/98/3 40/99/3 38/100/3
f 39/101/4 33/102/4 36/103/4 40/104/4
f 34/105/5 33/106/5 39/101/5 37/107/5
f 38/95/6 40/108/6 36/109/6 35/110/6
f 41/111/1 42/112/1 43/113/1 44/114/1
f 42/115/2 45/116/2 46/117/2 43/118/2
f 45/119/3 47/120/3 48/121/3 46/122/3
f 47/123/4 41/124/4 44/125/4 48/126/4
f 42/127/5 41/128/5 47/123/5 45/129/5
f 46/117/6 48/130/6 44/131/6 43/132/6
o Cube.002_Cube.001
v 4.229080 -1.263853 -2.766195
v 4.229080 -1.263853 -3.451694
v 4.229080 3.212685 -3.451694
v 4.229080 3.212685 -2.766195
v 3.652835 -1.263853 -3.451694
v 3.652835 3.212685 -3.451694
v 3.652835 -1.263853 -2.766195
v 3.652835 3.212685 -2.766195
v 4.236816 2.991602 -3.545074
v 4.236816 2.991603 14.486524
v -3.979274 2.991603 14.486524
v -3.979274 2.991602 -3.545074
v 4.236816 3.218257 14.486524
v -3.979274 3.218257 14.486524
v -3.979274 3.218256 -3.545074
v 4.236816 3.218256 -3.545074
v 4.145879 -1.259319 14.433272
v 4.145879 -1.259319 13.747773
v 4.145879 3.217219 13.747773
v 4.145879 3.217219 14.433272
v 3.569633 -1.259319 13.747773
v 3.569633 3.217219 13.747773
v 3.569633 -1.259319 14.433272
v 3.569633 3.217219 14.433272
v 3.502461 1.802164 -3.360207
v 3.701647 1.802164 -3.360207
v 3.701647 1.802164 -3.360207
v 3.502461 1.802164 -3.360207
v 3.701647 1.696208 -3.360207
v 3.701647 1.696208 -3.360207
v 3.502461 1.696208 -3.360207
v 3.502461 1.696208 -3.360207
v -3.422102 -1.456905 -2.696105
v -3.422102 -1.456905 -3.381604
v -3.422102 3.019633 -3.381604
v -3.422102 3.019633 -2.696105
v -3.998348 -1.456905 -3.381604
v -3.998348 3.019633 -3.381604
v -3.998348 -1.456905 -2.696105
v -3.998348 3.019633 -2.696105
v -3.263366 -1.316149 14.327203
v -3.263366 -1.316149 13.641702
v -3.263366 3.160389 13.641702
v -3.263366 3.160389 14.327203
v -3.839611 -1.316149 13.641702
v -3.839611 3.160389 13.641702
v -3.839611 -1.316149 14.327203
v -3.839611 3.160389 14.327203
vt 0.375000 0.000000
vt 0.625000 0.000000
vt 0.625000 0.250000
vt 0.375000 0.250000
vt 0.375000 0.250000
vt 0.625000 0.250000
vt 0.625000 0.500000
vt 0.375000 0.500000
vt 0.375000 0.500000
vt 0.625000 0.500000
vt 0.625000 0.750000
vt 0.375000 0.750000
vt 0.375000 0.750000
vt 0.625000 0.750000
vt 0.625000 1.000000
vt 0.375000 1.000000
vt 0.125000 0.500000
vt 0.375000 0.500000
vt 0.125000 0.750000
vt 0.875000 0.500000
vt 0.875000 0.750000
vt 0.625000 0.750000
vt 0.625000 0.500000
vt 0.875000 0.500000
vt 0.875000 0.750000
vt 0.625000 0.750000
vt 0.375000 0.750000
vt 0.625000 0.750000
vt 0.625000 1.000000
vt 0.375000 1.000000
vt 0.375000 0.000000
vt 0.625000 0.000000
vt 0.625000 0.250000
vt 0.375000 0.250000
vt 0.125000 0.500000
vt 0.375000 0.500000
vt 0.125000 0.750000
vt 0.375000 0.500000
vt 0.625000 0.500000
vt 0.625000 0.750000
vt 0.375000 0.750000
vt 0.375000 0.250000
vt 0.625000 0.250000
vt 0.375000 0.500000
vt 0.375000 0.000000
vt 0.625000 0.000000
vt 0.625000 0.250000
vt 0.375000 0.250000
vt 0.375000 0.250000
vt 0.625000 0.250000
vt 0.625000 0.500000
vt 0.375000 0.500000
vt 0.375000 0.500000
vt 0.625000 0.500000
vt 0.625000 0.750000
vt 0.375000 0.750000
vt 0.375000 0.750000
vt 0.625000 0.750000
vt 0.625000 1.000000
vt 0.375000 1.000000
vt 0.125000 0.500000
vt 0.375000 0.500000
vt 0.125000 0.750000
vt 0.875000 0.500000
vt 0.875000 0.750000
vt 0.625000 0.750000
vt 0.375000 0.000000
vt 0.625000 0.000000
vt 0.625000 0.250000
vt 0.375000 0.250000
vt 0.375000 0.250000
vt 0.625000 0.250000
vt 0.625000 0.500000
vt 0.375000 0.500000
vt 0.375000 0.500000
vt 0.625000 0.500000
vt 0.625000 0.750000
vt 0.375000 0.750000
vt 0.375000 0.750000
vt 0.625000 0.750000
vt 0.625000 1.000000
vt 0.375000 1.000000
vt 0.125000 0.500000
vt 0.375000 0.500000
vt 0.125000 0.750000
vt 0.875000 0.500000
vt 0.875000 0.750000
vt 0.625000 0.750000
vt 0.375000 0.000000
vt 0.625000 0.000000
vt 0.625000 0.250000
vt 0.375000 0.250000
vt 0.375000 0.250000
vt 0.625000 0.250000
vt 0.625000 0.500000
vt 0.375000 0.500000
vt 0.375000 0.500000
vt 0.625000 0.500000
vt 0.625000 0.750000
vt 0.375000 0.750000
vt 0.375000 0.750000
vt 0.625000 0.750000
vt 0.625000 1.000000
vt 0.375000 1.000000
vt 0.125000 0.500000
vt 0.375000 0.500000
vt 0.125000 0.750000
vt 0.875000 0.500000
vt 0.875000 0.750000
vt 0.625000 0.750000
vt 0.375000 0.000000
vt 0.625000 0.000000
vt 0.625000 0.250000
vt 0.375000 0.250000
vt 0.375000 0.250000
vt 0.625000 0.250000
vt 0.625000 0.500000
vt 0.375000 0.500000
vt 0.375000 0.500000
vt 0.625000 0.500000
vt 0.625000 0.750000
vt 0.375000 0.750000
vt 0.375000 0.750000
vt 0.625000 0.750000
vt 0.625000 1.000000
vt 0.375000 1.000000
vt 0.125000 0.500000
vt 0.375000 0.500000
vt 0.125000 0.750000
vt 0.875000 0.500000
vt 0.875000 0.750000
vt 0.625000 0.750000
vn 1.0000 0.0000 0.0000
vn 0.0000 -0.0000 -1.0000
vn -1.0000 0.0000 0.0000
vn 0.0000 0.0000 1.0000
vn 0.0000 -1.0000 0.0000
vn 0.0000 1.0000 0.0000
usemtl Material.002
s 1
f 49/133/7 50/134/7 51/135/7 52/136/7
f 50/137/8 53/138/8 54/139/8 51/140/8
f 53/141/9 55/142/9 56/143/9 54/144/9
f 55/145/10 49/146/10 52/147/10 56/148/10
f 50/149/11 49/150/11 55/145/11 53/151/11
f 54/139/12 56/152/12 52/153/12 51/154/12
f 57/155/11 58/156/11 59/157/11 60/158/11
f 61/159/10 62/160/10 59/161/10 58/162/10
f 62/163/9 63/164/9 60/165/9 59/166/9
f 63/167/12 62/168/12 61/159/12 64/169/12
f 64/170/7 61/171/7 58/172/7 57/173/7
f 63/174/8 64/175/8 57/155/8 60/176/8
f 65/177/7 66/178/7 67/179/7 68/180/7
f 66/181/8 69/182/8 70/183/8 67/184/8
f 69/185/9 71/186/9 72/187/9 70/188/9
f 71/189/10 65/190/10 68/191/10 72/192/10
f 66/193/11 65/194/11 71/189/11 69/195/11
f 70/183/12 72/196/12 68/197/12 67/198/12
f 73/199/10 74/200/10 75/201/10 76/202/10
f 74/203/10 77/204/10 78/205/10 75/206/10
f 77/207/10 79/208/10 80/209/10 78/210/10
f 79/211/10 73/212/10 76/213/10 80/214/10
f 74/215/10 73/216/10 79/211/10 77/217/10
f 78/205/8 80/218/8 76/219/8 75/220/8
f 81/221/7 82/222/7 83/223/7 84/224/7
f 82/225/8 85/226/8 86/227/8 83/228/8
f 85/229/9 87/230/9 88/231/9 86/232/9
f 87/233/10 81/234/10 84/235/10 88/236/10
f 82/237/11 81/238/11 87/233/11 85/239/11
f 86/227/12 88/240/12 84/241/12 83/242/12
f 89/243/7 90/244/7 91/245/7 92/246/7
f 90/247/8 93/248/8 94/249/8 91/250/8
f 93/251/9 95/252/9 96/253/9 94/254/9
f 95/255/10 89/256/10 92/257/10 96/258/10
f 90/259/11 89/260/11 95/255/11 93/261/11
f 94/249/12 96/262/12 92/263/12 91/264/12
